Coordinates
version=1
nRows=13
nColumns=36
inDegrees=yes

Units are S.I. units (second, meters, Newtons, ...)
If the header above contains a line with 'inDegrees', this indicates whether rotational values are in degrees (yes) or radians (no).

endheader
time	pelvis_tilt	pelvis_list	pelvis_rotation	pelvis_tx	pelvis_ty	pelvis_tz	hip_flexion_r	hip_adduction_r	hip_rotation_r	knee_angle_r	knee_angle_r_beta	ankle_angle_r	subtalar_angle_r	mtp_angle_r	hip_flexion_l	hip_adduction_l	hip_rotation_l	knee_angle_l	knee_angle_l_beta	ankle_angle_l	subtalar_angle_l	mtp_angle_l	lumbar_extension	lumbar_bending	lumbar_rotation	arm_flex_r	arm_add_r	arm_rot_r	elbow_flex_r	pro_sup_r	arm_flex_l	arm_add_l	arm_rot_l	elbow_flex_l	pro_sup_l
      0.72000000	    -21.62300309	     -2.55647280	      0.62415986	     -0.90180532	      1.11773859	     -0.04844565	     51.92349423	      4.95235968	      0.94453201	     65.33189789	      1.14025672	     33.86658555	    -17.87896995	     -7.49999987	     54.73353514	     -4.85706879	      1.80567151	     69.52078351	      1.21336657	     31.95069172	     -9.92863622	     -7.49999987	    -23.77215191	      1.40091542	      2.02990932	      8.32098605	     -9.96113450	     10.21168560	     19.74963075	     65.50301722	      0.05377658	     -9.45543552	     23.56972622	     13.18891164	     60.47922916
      0.72166670	    -20.53944511	     -2.90749603	      0.42145920	     -0.89567807	      1.11052175	     -0.04454714	     50.99318575	      5.23924888	      0.80030227	     65.90055943	      1.15018174	     34.47437000	    -17.47585918	     -7.49999987	     54.01433820	     -4.79476145	      2.63442759	     70.56504086	      1.23159230	     31.65340670	    -11.59846596	     -7.49999987	    -25.47498669	      1.79062584	      2.56552413	      8.51671789	    -10.41051201	      9.75964750	     20.59613790	     65.60903582	      0.28962421	     -9.39969812	     23.02936423	     13.93450487	     60.14928333
      0.72333330	    -20.71199819	     -3.01179514	      0.28692460	     -0.90210171	      1.10166234	     -0.04821732	     52.00226137	      5.18728223	      0.67240730	     67.27981474	      1.17425429	     34.97269224	    -17.47419295	     -7.49999987	     55.13726678	     -4.54794987	      2.82900486	     72.14234190	      1.25912140	     31.96668138	    -12.40688205	     -7.49999987	    -25.89231448	      1.97634776	      2.77671255	      8.45431042	    -10.78807161	      8.49521026	     21.45457162	     65.44844705	      0.61674746	     -9.15880095	     21.49117950	     14.08839888	     59.64142809
      0.72500000	    -20.47609666	     -3.09851486	      0.13988708	     -0.89626831	      1.10148696	     -0.04427845	     52.03137759	      5.40594904	      0.65947920	     68.16089435	      1.18963203	     35.56493927	    -17.49807891	     -7.49999987	     55.09009068	     -4.51168954	      3.21307067	     72.93177892	      1.27289967	     32.39455169	    -12.89382338	     -7.49999987	    -26.43961065	      2.12910428	      2.93023161	      8.53700686	    -10.88869537	      8.18049970	     21.44097134	     65.49902554	      0.89453877	     -9.15025172	     21.14180358	     14.08098278	     59.52344655
      0.72666670	    -20.71131689	     -3.21768435	      0.44322397	     -0.89583943	      1.09357900	     -0.04358869	     52.52651235	      5.38883747	      0.32740011	     69.12409110	      1.20644298	     36.65850909	    -16.87745898	     -7.49999987	     55.94824681	     -4.52340520	      3.42107355	     74.09989631	      1.29328717	     32.79196689	    -12.92437894	     -7.49999987	    -26.58091804	      2.13473555	      3.15842846	      7.43784734	     -9.95133493	     -0.92813516	     22.89333948	     76.49348843	      0.86837961	     -8.66667093	     12.05173079	     14.73222968	     62.89139703
      0.72833330	    -20.96212852	     -3.45196193	      0.37688727	     -0.89651636	      1.08890504	     -0.04430804	     53.29363147	      5.47961127	     -0.15573035	     70.25790692	      1.22623180	     37.54669083	    -16.10770734	     -7.49999987	     56.78175501	     -4.80828191	      3.62085712	     75.34187286	      1.31496375	     33.09997127	    -13.20784639	     -7.49999987	    -26.38181089	      2.32015792	      3.24020238	      7.10393855	     -9.94012234	     -1.50595978	     23.19475716	     75.71351759	      0.93695828	     -8.61215479	     11.10618658	     14.69484544	     62.57483889
      0.73000000	    -21.84704398	     -3.50565614	      0.03344685	     -0.89627552	      1.08026301	     -0.04334631	     54.93436374	      5.60710784	     -0.34522897	     71.65106085	      1.25054692	     38.46550730	    -15.41137516	     -7.49999987	     58.40787545	     -5.08611018	      3.64243895	     76.79617067	      1.34034603	     33.55776332	    -13.50117330	     -7.49999987	    -25.44458111	      2.23790769	      3.35567923	      6.62311160	     -9.78662101	     -2.27322444	     23.79673056	     75.17249903	      0.68222438	     -8.69492273	      9.71007168	     14.82409949	     62.27686665
      0.73166670	    -22.67605156	     -3.44115242	     -0.10432102	     -0.89658283	      1.07247247	     -0.04375380	     56.70151594	      5.55555659	     -0.37226559	     73.32636185	      1.27978644	     39.13871783	    -14.88254230	     -7.49999987	     60.22376699	     -5.17669752	      3.55037528	     78.59116307	      1.37167456	     33.89036018	    -13.64353593	     -7.49999987	    -24.63442214	      2.19433941	      3.25126531	      6.06290001	     -9.64900049	     -3.09479863	     24.73389759	     74.74607087	      0.54489171	     -8.74151076	      8.26457719	     14.99657288	     62.04584060
      0.73333330	    -23.74062341	     -3.33326956	      0.07884016	     -0.89626620	      1.06730330	     -0.04335486	     58.42458552	      5.36788315	     -0.29970890	     74.58711352	      1.30179071	     39.68904965	    -14.80460539	     -7.49999987	     61.83026369	     -4.85623303	      3.70506615	     79.56044003	      1.38859163	     33.92168050	    -14.13947536	     -7.49999987	    -23.63399672	      2.23561920	      2.88865892	      5.36571537	     -9.41067609	     -4.09002256	     25.74523785	     74.04856803	      0.30438251	     -8.90015293	      6.61621612	     15.38418279	     61.81477182
      0.73500000	    -24.70398673	     -3.07470825	      0.36191116	     -0.90241329	      1.06302777	     -0.04844435	     60.28513262	      4.89789291	     -0.12821904	     75.82696016	      1.32343012	     40.01434642	    -14.76418280	     -7.49999987	     63.42773867	     -4.13561400	      3.65499049	     80.25345294	      1.40068699	     33.81813200	    -14.82874231	     -7.49999987	    -23.07346115	      2.22829253	      2.40327362	      4.82727300	     -8.89243678	     -9.00174559	     27.15665661	     83.13348413	      0.13518999	     -8.12256002	     -3.45312740	     16.69702270	     72.02174778
      0.73666670	    -25.07004515	     -2.91827912	      1.00431840	     -0.89556507	      1.05929598	     -0.04357583	     61.20450255	      4.69287644	      0.17800371	     77.19435971	      1.34729574	     40.12448544	    -15.37931970	     -7.49999987	     64.02307371	     -3.56126775	      3.95133079	     80.55139288	      1.40588702	     33.79236892	    -14.88376441	     -7.49999987	    -22.61776484	      2.17831119	      1.92875165	      4.45032601	     -8.62043635	     -9.11310006	     27.43222149	     83.09306506	      0.62031489	     -8.37215902	     -3.73069703	     16.86315438	     72.01791282
      0.73833330	    -25.53044219	     -2.79575532	      1.45664596	     -0.89582950	      1.05859794	     -0.04440776	     62.08779498	      4.63080095	      0.35644555	     77.86966509	      1.35908204	     39.84631366	    -16.19322599	     -7.49999987	     64.70617690	     -3.01687544	      4.14761529	     80.66273526	      1.40783031	     34.01982198	    -14.34583982	     -7.49999987	    -22.34382199	      2.13109411	      1.57175048	      4.03897919	     -8.38985954	     -9.44636124	     28.10169335	     81.56580181	      0.84589140	     -8.53446854	     -4.37101147	     17.61299513	     71.09486245
      0.74000000	    -25.22572245	     -2.86669211	      1.86021102	     -0.88946687	      1.05450090	     -0.03932455	     61.78576145	      4.99464010	      0.35214723	     78.56546007	      1.37122596	     40.36418559	    -16.58240201	     -7.49999987	     64.41761911	     -3.03310790	      4.59201357	     80.84077727	      1.41093773	     34.40536222	    -13.50539608	     -7.49999987	    -22.68689320	      2.08066969	      1.40725999	      3.81010767	     -7.90996834	     -9.72313107	     27.87418096	     81.62598936	      1.31860544	     -8.85506473	     -4.84667875	     17.69925715	     71.13095686
